<?xml version="1.0" encoding="UTF-8"?>
<!DOCTYPE svg PUBLIC "-//W3C//DTD SVG 1.1//EN" "http://www.w3.org/Graphics/SVG/1.1/DTD/svg11.dtd">
<svg xmlns="http://www.w3.org/2000/svg" version="1.1" width="512px" height="512px" style="shape-rendering:geometricPrecision; text-rendering:geometricPrecision; image-rendering:optimizeQuality; fill-rule:evenodd; clip-rule:evenodd" xmlns:xlink="http://www.w3.org/1999/xlink">
<g><path style="opacity:0.932" fill="#00C6A9" d="M 282.5,-0.5 C 286.5,-0.5 290.5,-0.5 294.5,-0.5C 307.728,2.54799 316.561,10.548 321,23.5C 322.456,50.4572 322.956,77.4572 322.5,104.5C 330.841,104.19 339.174,103.69 347.5,103C 376.549,98.6586 405.549,93.9919 434.5,89C 453.433,85.7221 472.433,85.0555 491.5,87C 502.679,89.0133 509.345,95.5133 511.5,106.5C 511.5,112.5 511.5,118.5 511.5,124.5C 506.647,141.54 498.48,156.874 487,170.5C 468.232,192.602 448.066,213.436 426.5,233C 420.643,235.95 416.477,234.45 414,228.5C 413.448,225.581 414.115,222.914 416,220.5C 439.807,199.364 461.474,176.364 481,151.5C 487.531,142.77 492.198,133.104 495,122.5C 495.667,118.167 495.667,113.833 495,109.5C 494.64,107.579 493.806,105.912 492.5,104.5C 482.708,101.628 472.708,100.794 462.5,102C 424.721,106.908 387.054,112.574 349.5,119C 326.832,120.983 304.166,120.983 281.5,119C 246.995,113.83 212.328,112.163 177.5,114C 172.465,110.987 171.298,106.82 174,101.5C 174.903,100.299 176.069,99.4652 177.5,99C 203.189,96.9123 228.855,97.079 254.5,99.5C 254.069,74.466 254.569,49.466 256,24.5C 260.311,11.2793 269.144,2.94593 282.5,-0.5 Z M 284.5,15.5 C 295.438,14.5432 302.604,19.2099 306,29.5C 306.5,54.4978 306.667,79.4978 306.5,104.5C 294.442,104.111 282.442,103.111 270.5,101.5C 270.333,78.1643 270.5,54.831 271,31.5C 272.505,23.5053 277.005,18.1719 284.5,15.5 Z"/></g>
<g><path style="opacity:0.923" fill="#00C6A9" d="M 146.5,101.5 C 154.662,101.498 157.828,105.498 156,113.5C 154.833,114.667 153.667,115.833 152.5,117C 90.6045,126.56 50.7711,161.393 33,221.5C 26.8442,243.101 22.8442,265.101 21,287.5C 17.9867,292.535 13.8201,293.702 8.5,291C 6.14653,288.867 5.14653,286.2 5.5,283C 7.83297,251.329 14.9996,220.829 27,191.5C 50.7351,140.056 90.5685,110.056 146.5,101.5 Z"/></g>
<g><path style="opacity:0.931" fill="#00C6A9" d="M 37.5,511.5 C 33.8333,511.5 30.1667,511.5 26.5,511.5C 13.4578,508.181 5.29112,499.848 2,486.5C 1.20451,482.688 0.371179,479.021 -0.5,475.5C -0.5,462.167 -0.5,448.833 -0.5,435.5C 3.852,392.1 5.68533,348.433 5,304.5C 8.70489,300.018 13.0382,299.351 18,302.5C 19.9828,307.103 20.8161,311.936 20.5,317C 20.5331,338.692 20.3665,360.526 20,382.5C 16.7745,412.761 15.4411,443.094 16,473.5C 17.9564,494.055 28.123,499.889 46.5,491C 50.8333,488 55.1667,485 59.5,482C 78.1976,463.634 97.1976,445.634 116.5,428C 124.825,421.836 133.492,416.169 142.5,411C 193.14,396.094 239.974,373.594 283,343.5C 301.517,319.597 315.85,293.263 326,264.5C 332.096,246.203 334.096,227.536 332,208.5C 330.601,201.471 329.101,194.471 327.5,187.5C 329.092,179.873 333.426,177.873 340.5,181.5C 343.734,187.422 345.901,193.755 347,200.5C 350.5,223.162 348.834,245.495 342,267.5C 336.74,282.647 330.74,297.314 324,311.5C 347.597,286.849 371.764,262.682 396.5,239C 403.606,235.15 408.273,237.15 410.5,245C 410,246.5 409.5,248 409,249.5C 396.971,261.863 384.638,273.863 372,285.5C 347.876,313.967 320.376,338.467 289.5,359C 293.355,367.714 298.688,375.381 305.5,382C 312.667,387.42 320.333,392.087 328.5,396C 336.788,405.174 337.622,415.007 331,425.5C 322.504,433.555 313.004,435.055 302.5,430C 286.953,422.783 274.12,412.283 264,398.5C 263.667,426.5 263.333,454.5 263,482.5C 257.392,503.225 243.892,512.391 222.5,510C 206.754,505.354 197.921,494.854 196,478.5C 195.667,455.5 195.333,432.5 195,409.5C 193.915,410.293 192.748,410.96 191.5,411.5C 193.901,443.448 184.567,471.281 163.5,495C 148.695,502.91 137.529,499.41 130,484.5C 129.333,480.5 129.333,476.5 130,472.5C 135.367,464.112 140.367,455.445 145,446.5C 147.616,440.048 148.616,433.381 148,426.5C 138.614,431.888 129.781,438.054 121.5,445C 103.136,463.032 84.469,480.699 65.5,498C 56.9963,504.42 47.663,508.92 37.5,511.5 Z M 273.5,368.5 C 274.675,368.281 275.675,368.614 276.5,369.5C 285.339,387.84 299.173,400.84 318,408.5C 320.399,414.852 318.232,417.352 311.5,416C 291.421,407.421 276.755,393.255 267.5,373.5C 269.571,371.815 271.571,370.148 273.5,368.5 Z M 246.5,384.5 C 247.664,416.331 247.831,448.331 247,480.5C 243.556,490.97 236.389,495.47 225.5,494C 217.115,491.752 212.615,486.252 212,477.5C 211.167,452.493 211.334,427.493 212.5,402.5C 224.211,396.98 235.545,390.98 246.5,384.5 Z M 172.5,417.5 C 176.299,441.639 169.965,463.139 153.5,482C 147.737,483.915 145.237,481.748 146,475.5C 159.476,459.741 165.81,441.408 165,420.5C 167.672,419.718 170.172,418.718 172.5,417.5 Z"/></g>
</svg>
